<?xml version="1.0" encoding="utf-8"?>
<svg xmlns="http://www.w3.org/2000/svg"
	xmlns:xlink="http://www.w3.org/1999/xlink"
	width="15px" height="15px" viewBox="0 0 15 15">
<path fillRule="evenodd" d="M 13.9 5.66C 13.9 5.66 11.89 7.67 11.89 7.67 11.08 8.47 9.77 8.47 8.97 7.66 8.97 7.66 10.1 6.53 10.1 6.53 10.45 6.62 10.89 6.47 11.16 6.2 11.16 6.2 12.45 4.92 12.45 4.92 12.85 4.52 12.85 3.86 12.45 3.46 12.45 3.46 11.36 2.35 11.36 2.35 10.96 1.95 10.31 1.95 9.9 2.35 9.9 2.35 8.62 3.63 8.62 3.63 8.33 3.92 8.19 4.33 8.3 4.69 8.3 4.69 7.15 5.82 7.15 5.82 6.35 5.01 6.35 3.7 7.16 2.89 7.16 2.89 9.18 0.88 9.18 0.88 9.98 0.08 11.29 0.08 12.09 0.89 12.09 0.89 13.91 2.73 13.91 2.73 14.72 3.54 14.71 4.85 13.9 5.66ZM 5.26 9.56C 4.99 9.27 4.99 8.82 5.27 8.54 5.27 8.54 8.59 5.16 8.59 5.16 8.87 4.88 9.31 4.88 9.59 5.16 9.86 5.45 9.86 5.9 9.58 6.18 9.58 6.18 6.26 9.56 6.26 9.56 5.98 9.84 5.53 9.84 5.26 9.56ZM 3.6 8.56C 3.6 8.56 2.4 9.75 2.4 9.75 1.99 10.16 1.98 10.83 2.39 11.25 2.39 11.25 3.51 12.37 3.51 12.37 3.92 12.78 4.58 12.78 4.99 12.38 4.99 12.38 6.19 11.18 6.19 11.18 6.47 10.9 6.62 10.44 6.53 10.09 6.53 10.09 7.69 8.94 7.69 8.94 8.5 9.77 8.5 11.11 7.68 11.93 7.68 11.93 5.73 13.87 5.73 13.87 4.91 14.69 3.58 14.68 2.76 13.86 2.76 13.86 0.91 11.99 0.91 11.99 0.09 11.16 0.09 9.83 0.92 9 0.92 9 2.86 7.06 2.86 7.06 3.68 6.24 5.01 6.25 5.83 7.07 5.83 7.07 4.68 8.24 4.68 8.24 4.31 8.12 3.89 8.27 3.6 8.56Z" fill="rgb(31,217,181)"/></svg>